<svg width="32" height="32" viewBox="0 0 32 32" fill="none" xmlns="http://www.w3.org/2000/svg">
<path d="M27.076 5.02679C25.0493 4.082 22.855 3.39627 20.5692 3.00007C20.5492 2.99943 20.5292 3.00319 20.5108 3.01109C20.4924 3.01899 20.4759 3.03083 20.4625 3.04579C20.1882 3.54866 19.8682 4.20391 19.6549 4.70678C17.2304 4.34106 14.7648 4.34106 12.3404 4.70678C12.1271 4.18867 11.8071 3.54866 11.5175 3.04579C11.5023 3.01531 11.4566 3.00007 11.4108 3.00007C9.12507 3.39627 6.94596 4.082 4.904 5.02679C4.88876 5.02679 4.87353 5.04203 4.85829 5.05727C0.713413 11.2593 -0.429476 17.2938 0.134349 23.2673C0.134349 23.2978 0.149587 23.3282 0.180064 23.3435C2.923 25.355 5.55926 26.574 8.16505 27.3817C8.21076 27.3969 8.25648 27.3817 8.27171 27.3512C8.88126 26.5131 9.42984 25.6293 9.90224 24.6997C9.93271 24.6388 9.90224 24.5778 9.84128 24.5626C8.97269 24.2273 8.14981 23.8311 7.34217 23.374C7.28121 23.3435 7.28121 23.2521 7.32693 23.2063C7.49455 23.0844 7.66217 22.9473 7.8298 22.8254C7.86027 22.7949 7.90599 22.7949 7.93647 22.8101C13.1785 25.2026 18.832 25.2026 24.0131 22.8101C24.0436 22.7949 24.0893 22.7949 24.1198 22.8254C24.2874 22.9625 24.455 23.0844 24.6226 23.2216C24.6836 23.2673 24.6836 23.3587 24.6074 23.3892C23.815 23.8616 22.9769 24.2426 22.1083 24.5778C22.0473 24.593 22.0321 24.6692 22.0473 24.7149C22.535 25.6445 23.0836 26.5283 23.6779 27.3664C23.7236 27.3817 23.7693 27.3969 23.815 27.3817C26.436 26.574 29.0723 25.355 31.8152 23.3435C31.8457 23.3282 31.8609 23.2978 31.8609 23.2673C32.5314 16.3642 30.7485 10.3755 27.137 5.05727C27.1218 5.04203 27.1065 5.02679 27.076 5.02679ZM10.6946 19.6253C9.12507 19.6253 7.81456 18.1776 7.81456 16.3947C7.81456 14.6118 9.09459 13.1642 10.6946 13.1642C12.3099 13.1642 13.59 14.6271 13.5747 16.3947C13.5747 18.1776 12.2947 19.6253 10.6946 19.6253ZM21.3159 19.6253C19.7463 19.6253 18.4358 18.1776 18.4358 16.3947C18.4358 14.6118 19.7158 13.1642 21.3159 13.1642C22.9312 13.1642 24.2112 14.6271 24.196 16.3947C24.196 18.1776 22.9312 19.6253 21.3159 19.6253Z" fill="white"/>
</svg>
