<svg width="32" height="32" viewBox="0 0 32 32" fill="none" xmlns="http://www.w3.org/2000/svg">
<path fill-rule="evenodd" clip-rule="evenodd" d="M7.74851 1.79932C6.17034 1.79932 4.65677 2.42609 3.54062 3.54181C2.42447 4.65753 1.79711 6.17086 1.79651 7.74903V23.621C1.79651 25.1996 2.42359 26.7135 3.53981 27.8297C4.65603 28.946 6.16994 29.573 7.74851 29.573H23.6205C25.1987 29.5724 26.712 28.9451 27.8277 27.8289C28.9435 26.7128 29.5702 25.1992 29.5702 23.621V7.74903C29.5696 6.17126 28.9426 4.65827 27.8269 3.54262C26.7113 2.42696 25.1983 1.79992 23.6205 1.79932H7.74851ZM25.3325 7.75817C25.3325 8.21283 25.1519 8.64887 24.8304 8.97036C24.5089 9.29185 24.0729 9.47246 23.6182 9.47246C23.1636 9.47246 22.7275 9.29185 22.406 8.97036C22.0846 8.64887 21.9039 8.21283 21.9039 7.75817C21.9039 7.30352 22.0846 6.86748 22.406 6.54599C22.7275 6.2245 23.1636 6.04389 23.6182 6.04389C24.0729 6.04389 24.5089 6.2245 24.8304 6.54599C25.1519 6.86748 25.3325 7.30352 25.3325 7.75817ZM15.6868 10.9307C14.4259 10.9307 13.2166 11.4316 12.325 12.3232C11.4334 13.2148 10.9325 14.4241 10.9325 15.685C10.9325 16.9459 11.4334 18.1552 12.325 19.0468C13.2166 19.9384 14.4259 20.4393 15.6868 20.4393C16.9477 20.4393 18.157 19.9384 19.0486 19.0468C19.9402 18.1552 20.4411 16.9459 20.4411 15.685C20.4411 14.4241 19.9402 13.2148 19.0486 12.3232C18.157 11.4316 16.9477 10.9307 15.6868 10.9307ZM8.64451 15.685C8.64451 13.8179 9.38622 12.0273 10.7065 10.707C12.0267 9.38674 13.8174 8.64503 15.6845 8.64503C17.5516 8.64503 19.3423 9.38674 20.6625 10.707C21.9828 12.0273 22.7245 13.8179 22.7245 15.685C22.7245 17.5522 21.9828 19.3428 20.6625 20.6631C19.3423 21.9833 17.5516 22.725 15.6845 22.725C13.8174 22.725 12.0267 21.9833 10.7065 20.6631C9.38622 19.3428 8.64451 17.5522 8.64451 15.685Z" fill="white"/>
</svg>
