<svg width="275" height="42" viewBox="0 0 275 42" fill="none" xmlns="http://www.w3.org/2000/svg">
<path d="M18.9146 11.7751L15.8 12.0364L13.521 10.5238C13.521 10.5238 13.4567 9.30083 14.5398 8.74636C16.2879 8.11679 17.9765 10.0579 18.9146 11.7751Z" fill="#CE687A"/>
<path d="M34.9868 24.2335C29.1617 23.7186 24.5336 27.0655 24.3857 27.0978C24.2378 27.13 21.8885 27.2265 20.5368 26.9691C19.1851 26.7116 16.6749 25.8427 16.3531 25.7139C16.0312 25.5852 18.284 26.9369 19.8931 27.3874C21.5023 27.838 24.2056 27.6771 24.3857 27.6771C24.5657 27.6771 24.0768 30.7666 25.2032 33.5665C26.3296 36.3664 28.872 41.8052 27.1985 41.934C26.2216 42.0091 19.2013 38.0041 13.3281 34.5996C9.14093 32.1724 5.53683 30.0504 5.12156 29.9299C4.12382 29.6402 6.00949 28.5138 7.11675 24.5232C8.22401 20.5326 9.64604 17.5395 9.93568 17.0568C9.83913 16.5097 8.08212 11.1996 10.3027 10.0732C12.5233 8.94682 15.7416 11.972 15.7416 11.972C18.1874 11.6501 26.8637 11.3752 29.7923 12.1329C31.8388 12.6623 37.6257 14.1282 37.6257 16.1557C37.6257 18.1832 37.0465 24.2335 34.9868 24.2335Z" fill="url(#paint0_linear_378_1403)"/>
<path d="M33.9661 16.6064C33.6589 16.6064 33.2903 16.8317 33.1615 17.1535C33.0328 17.4754 34.3318 18.5076 34.5132 18.5696C34.6946 18.6315 35.0603 18.4616 35.0925 18.2799C35.1247 18.0983 34.2734 16.6064 33.9661 16.6064Z" fill="black"/>
<path d="M37.0128 17.1676C36.8841 16.9423 36.4657 16.7492 36.2404 16.8136C36.0152 16.878 35.7577 18.0686 35.7576 18.2618C35.7576 18.4549 36.1438 18.5836 36.3047 18.5514C36.4656 18.5192 37.1415 17.3929 37.0128 17.1676Z" fill="black"/>
<path d="M23.995 16.3072C24.1612 15.9709 23.1504 14.3007 21.621 14.2892C20.4692 14.2805 19.7511 14.836 19.2963 15.4301C19.1403 15.6339 19.3409 15.8897 19.5876 15.8189C19.7305 15.7778 19.8833 15.8536 19.9866 15.9605C20.3143 16.2993 21.0522 16.6062 21.7674 16.6062C22.2315 16.6062 22.7053 16.4554 23.0445 16.3157C23.3384 16.1946 23.702 16.4308 23.995 16.3072Z" fill="black"/>
<g filter="url(#filter0_d_378_1403)">
<path d="M7.77686 10.4283L2.89015 7.41256L6.79342 8.24818L7.3809 2.87258L12.1743 5.37564L13.6519 1.66748L13.4385 7.40585L11.7812 7.56747L10.8413 9.35476L8.83336 9.14112L7.77686 10.4283Z" fill="url(#paint1_linear_378_1403)"/>
<path d="M7.77686 10.4283L2.89015 7.41256L6.79342 8.24818L7.3809 2.87258L12.1743 5.37564L13.6519 1.66748L13.4385 7.40585L11.7812 7.56747L10.8413 9.35476L8.83336 9.14112L7.77686 10.4283Z" fill="url(#paint2_linear_378_1403)"/>
</g>
<path d="M7.76051 10.3305L2.89 7.41242L6.85939 8.49613L7.76051 10.3305Z" fill="url(#paint3_linear_378_1403)"/>
<path d="M8.75817 9.04324L10.7857 9.26851L9.99613 7.78812L7.43868 2.99291L8.75817 9.04324Z" fill="url(#paint4_linear_378_1403)"/>
<path d="M13.3925 7.33755L13.6499 1.7378L11.6868 7.49848L13.3925 7.33755Z" fill="url(#paint5_linear_378_1403)"/>
<g filter="url(#filter1_i_378_1403)">
<path d="M4.18848 29.5757L5.4436 28.4493C5.4436 28.4493 10.5606 32.4078 15.2593 35.4651C19.2635 38.0706 27.0703 41.7729 27.2312 41.8051C27.3921 41.8373 27.5852 41.7086 27.6496 41.5155C27.7139 41.3224 26.5501 36.6001 25.7508 35.079C24.7531 33.1802 24.4957 30.5734 24.4957 30.5734L26.0967 31.9165L27.2811 33.4632L26.6644 34.5252L27.6644 35.909C27.6644 35.909 27.7783 41.6442 27.7783 41.7407C27.7783 41.8373 27.4565 41.9982 27.3278 41.9982C27.199 41.9982 11.7836 38.1041 11.7836 38.1041L10.7537 35.4651L6.37689 35.1433L4.18848 29.5757Z" fill="#39586E"/>
</g>
<g filter="url(#filter2_i_378_1403)">
<path d="M4.18848 29.5757L5.4436 28.4493C5.4436 28.4493 10.5606 32.4078 15.2593 35.4651C19.2635 38.0706 27.0381 41.7665 27.2312 41.8051C27.4243 41.8437 27.6818 41.9017 27.3278 41.9982C26.9737 42.0948 11.7836 38.1041 11.7836 38.1041L10.7537 35.4651L6.37689 35.1433L4.18848 29.5757Z" fill="#39586E"/>
</g>
<path d="M101.092 34.5011H96.9406C96.6402 34.5011 96.3506 34.426 96.0717 34.2759C95.8142 34.1257 95.6211 33.9111 95.4924 33.6322L91.9523 26.7451C91.8236 26.4662 91.6198 26.2517 91.3408 26.1015C91.0834 25.9513 90.8045 25.8762 90.5041 25.8762H86.3847V34.5011H81.7182V22.0465H92.3385C92.8105 22.0465 93.2503 21.9821 93.658 21.8534C94.0871 21.7246 94.4625 21.5315 94.7844 21.2741C95.1062 21.0166 95.3637 20.7055 95.5568 20.3408C95.7499 19.9546 95.8464 19.5148 95.8464 19.0213C95.8464 18.5278 95.7499 18.0987 95.5568 17.734C95.3637 17.3478 95.1062 17.026 94.7844 16.7685C94.4625 16.5111 94.0871 16.318 93.658 16.1892C93.2503 16.0605 92.8105 15.9961 92.3385 15.9961H83.3274C82.8983 15.9961 82.5228 15.8352 82.201 15.5134C81.8792 15.1916 81.7182 14.8161 81.7182 14.387V11.9733H92.7569C93.8082 11.9733 94.8058 12.1342 95.7499 12.4561C96.6939 12.7564 97.5199 13.207 98.2279 13.8077C98.9359 14.387 99.4938 15.1165 99.9014 15.9961C100.309 16.8543 100.513 17.8413 100.513 18.9569C100.513 20.3944 100.105 21.6603 99.2899 22.7545C98.4961 23.8487 97.4555 24.6747 96.1682 25.2325L101.092 34.5011Z" fill="white"/>
<path d="M151.216 34.8551C149.672 34.8551 148.288 34.6191 147.065 34.1471C145.842 33.6751 144.791 33.01 143.911 32.1518C143.053 31.2721 142.388 30.2101 141.916 28.9657C141.465 27.7213 141.24 26.3375 141.24 24.8142V12.0377H145.906V24.8142C145.906 25.6295 146.024 26.3911 146.26 27.0991C146.496 27.8072 146.839 28.4186 147.29 28.9335C147.741 29.4485 148.298 29.8561 148.964 30.1565C149.629 30.4354 150.39 30.5749 151.248 30.5749C152.107 30.5749 152.858 30.4354 153.501 30.1565C154.166 29.8561 154.724 29.4485 155.175 28.9335C155.625 28.4186 155.958 27.8072 156.172 27.0991C156.408 26.3911 156.526 25.6295 156.526 24.8142V12.0377H159.584C160.013 12.0377 160.388 12.1986 160.71 12.5204C161.032 12.8423 161.193 13.2177 161.193 13.6468V24.8142C161.193 26.3375 160.957 27.7213 160.485 28.9657C160.034 30.2101 159.369 31.2721 158.49 32.1518C157.631 33.01 156.591 33.6751 155.368 34.1471C154.145 34.6191 152.761 34.8551 151.216 34.8551Z" fill="white"/>
<path d="M234.439 15.9961H218.186V11.9733H237.11L235.951 14.9663C235.844 15.2667 235.64 15.5134 235.34 15.7065C235.061 15.8996 234.761 15.9961 234.439 15.9961ZM222.853 34.5011H218.186V21.2741H232.701L231.703 24.1062C231.596 24.428 231.403 24.6962 231.124 24.9107C230.845 25.1038 230.534 25.2004 230.191 25.2004H223.658C223.121 25.2004 222.853 25.4686 222.853 26.0049V34.5011Z" fill="white"/>
<path fill-rule="evenodd" clip-rule="evenodd" d="M195.112 25.49L199.778 31.83V11.9733H195.112V25.49ZM196.109 34.5011H199.778C198.813 33.1709 197.847 31.8514 196.882 30.5427C195.916 29.2339 194.951 27.9037 193.985 26.552C192.376 24.3422 190.81 22.1001 189.287 19.8259C187.785 17.5302 186.262 15.2452 184.717 12.971C184.502 12.6492 184.202 12.4024 183.816 12.2308C183.43 12.0591 183.054 11.9733 182.689 11.9733H179.503V13.2606L184.17 19.4397L194.05 33.5035C194.286 33.8253 194.597 34.072 194.983 34.2437C195.369 34.4153 195.745 34.5011 196.109 34.5011ZM179.503 15.6421V34.5011H184.17V21.5637L179.503 15.6421Z" fill="white"/>
<path fill-rule="evenodd" clip-rule="evenodd" d="M51.5951 34.5011H56.2616V16.0927H64.8865V11.9733H44V16.0927H51.5951V34.5011Z" fill="white"/>
<path fill-rule="evenodd" clip-rule="evenodd" d="M118.261 34.5011H122.927V29.899L118.261 21.8534V34.5011ZM122.927 27.0991V13.5825C122.927 13.1533 122.766 12.7779 122.445 12.4561C122.123 12.1342 121.747 11.9733 121.318 11.9733H118.261V18.9569L122.927 27.0991Z" fill="white"/>
<path fill-rule="evenodd" clip-rule="evenodd" d="M254.077 31.5403C255.15 32.5702 256.405 33.3855 257.842 33.9862C258.626 34.2973 259.434 34.5248 260.267 34.6689L262.477 31.5403L264.686 34.6678C265.511 34.5237 266.309 34.2965 267.079 33.9862C268.538 33.3855 269.804 32.5702 270.876 31.5403C271.971 30.489 272.829 29.2554 273.451 27.8393C274.095 26.4233 274.417 24.8893 274.417 23.2372C274.417 21.5852 274.095 20.0511 273.451 18.6351C272.829 17.2191 271.971 15.9961 270.876 14.9663C269.804 13.915 268.538 13.0997 267.079 12.5204C266.309 12.1986 265.511 11.963 264.686 11.8136L262.477 14.9663L260.267 11.8125C259.434 11.9619 258.626 12.1978 257.842 12.5204C256.405 13.0997 255.15 13.915 254.077 14.9663C253.004 15.9961 252.146 17.2191 251.503 18.6351C250.882 20.0463 250.569 21.6918 250.569 23.2372C250.569 24.7826 250.882 26.4282 251.503 27.8393C252.146 29.2554 253.004 30.489 254.077 31.5403ZM265.341 30.0278C264.483 30.3925 263.528 30.5749 262.477 30.5749C261.447 30.5749 260.492 30.3818 259.613 29.9956C258.733 29.6094 257.982 29.0945 257.36 28.4508C256.738 27.7857 256.244 27.0133 255.879 26.1337C255.536 25.2325 255.364 24.2671 255.364 23.2372C255.364 22.2074 255.536 21.2526 255.879 20.373C256.244 19.4719 256.738 18.6995 257.36 18.0558C257.982 17.3907 258.733 16.8651 259.613 16.4789C260.492 16.0927 261.447 15.8996 262.477 15.8996C263.528 15.8996 264.483 16.0927 265.341 16.4789C266.221 16.8436 266.972 17.3585 267.594 18.0236C268.237 18.6888 268.731 19.4719 269.074 20.373C269.439 21.2526 269.621 22.2074 269.621 23.2372C269.621 24.2671 269.439 25.2325 269.074 26.1337C268.731 27.0133 268.237 27.7857 267.594 28.4508C266.972 29.1159 266.221 29.6416 265.341 30.0278Z" fill="white"/>
<defs>
<filter id="filter0_d_378_1403" x="0.390137" y="1.66748" width="13.2617" height="11.7607" filterUnits="userSpaceOnUse" color-interpolation-filters="sRGB">
<feFlood flood-opacity="0" result="BackgroundImageFix"/>
<feColorMatrix in="SourceAlpha" type="matrix" values="0 0 0 0 0 0 0 0 0 0 0 0 0 0 0 0 0 0 127 0" result="hardAlpha"/>
<feOffset dx="-2.5" dy="3"/>
<feComposite in2="hardAlpha" operator="out"/>
<feColorMatrix type="matrix" values="0 0 0 0 1 0 0 0 0 0.728572 0 0 0 0 0.776697 0 0 0 0.29 0"/>
<feBlend mode="normal" in2="BackgroundImageFix" result="effect1_dropShadow_378_1403"/>
<feBlend mode="normal" in="SourceGraphic" in2="effect1_dropShadow_378_1403" result="shape"/>
</filter>
<filter id="filter1_i_378_1403" x="4.18848" y="28.4493" width="23.5898" height="13.5488" filterUnits="userSpaceOnUse" color-interpolation-filters="sRGB">
<feFlood flood-opacity="0" result="BackgroundImageFix"/>
<feBlend mode="normal" in="SourceGraphic" in2="BackgroundImageFix" result="shape"/>
<feColorMatrix in="SourceAlpha" type="matrix" values="0 0 0 0 0 0 0 0 0 0 0 0 0 0 0 0 0 0 127 0" result="hardAlpha"/>
<feOffset dx="-4.5" dy="1"/>
<feComposite in2="hardAlpha" operator="arithmetic" k2="-1" k3="1"/>
<feColorMatrix type="matrix" values="0 0 0 0 0 0 0 0 0 0 0 0 0 0 0 0 0 0 0.25 0"/>
<feBlend mode="normal" in2="shape" result="effect1_innerShadow_378_1403"/>
</filter>
<filter id="filter2_i_378_1403" x="4.18848" y="28.4493" width="23.3154" height="13.5505" filterUnits="userSpaceOnUse" color-interpolation-filters="sRGB">
<feFlood flood-opacity="0" result="BackgroundImageFix"/>
<feBlend mode="normal" in="SourceGraphic" in2="BackgroundImageFix" result="shape"/>
<feColorMatrix in="SourceAlpha" type="matrix" values="0 0 0 0 0 0 0 0 0 0 0 0 0 0 0 0 0 0 127 0" result="hardAlpha"/>
<feOffset dx="3.5" dy="-4"/>
<feComposite in2="hardAlpha" operator="arithmetic" k2="-1" k3="1"/>
<feColorMatrix type="matrix" values="0 0 0 0 0 0 0 0 0 0 0 0 0 0 0 0 0 0 0.25 0"/>
<feBlend mode="normal" in2="shape" result="effect1_innerShadow_378_1403"/>
</filter>
<linearGradient id="paint0_linear_378_1403" x1="17.9302" y1="5.40671" x2="42.4298" y2="20.9072" gradientUnits="userSpaceOnUse">
<stop stop-color="#FF728B"/>
<stop offset="1" stop-color="#83FFF8"/>
</linearGradient>
<linearGradient id="paint1_linear_378_1403" x1="4.7677" y1="10.8778" x2="15.7741" y2="5.76072" gradientUnits="userSpaceOnUse">
<stop stop-color="#967B1E"/>
<stop offset="0.223739" stop-color="#FFFBA4"/>
<stop offset="0.471428" stop-color="#D8B94B"/>
<stop offset="0.636386" stop-color="#FFFBA4"/>
<stop offset="1" stop-color="#967B1E"/>
</linearGradient>
<linearGradient id="paint2_linear_378_1403" x1="7.3809" y1="2.87258" x2="10.9468" y2="10.5559" gradientUnits="userSpaceOnUse">
<stop stop-color="#FFF1A7"/>
<stop offset="1" stop-color="#FFF1A7" stop-opacity="0"/>
</linearGradient>
<linearGradient id="paint3_linear_378_1403" x1="9.07999" y1="5.63187" x2="11.2362" y2="10.1374" gradientUnits="userSpaceOnUse">
<stop stop-color="#FEFFE1"/>
<stop offset="1" stop-color="#C59E13"/>
</linearGradient>
<linearGradient id="paint4_linear_378_1403" x1="9.07999" y1="5.63187" x2="11.2362" y2="10.1374" gradientUnits="userSpaceOnUse">
<stop stop-color="#FEFFE1"/>
<stop offset="1" stop-color="#C59E13"/>
</linearGradient>
<linearGradient id="paint5_linear_378_1403" x1="9.07999" y1="5.63187" x2="11.2362" y2="10.1374" gradientUnits="userSpaceOnUse">
<stop stop-color="#FEFFE1"/>
<stop offset="1" stop-color="#C59E13"/>
</linearGradient>
</defs>
</svg>
