<svg width="275" height="42" viewBox="0 0 275 42" fill="none" xmlns="http://www.w3.org/2000/svg">
<path d="M18.9148 11.775L15.8001 12.0363L13.5211 10.5237C13.5211 10.5237 13.4568 9.3008 14.5399 8.74633C16.288 8.11676 17.9766 10.0579 18.9148 11.775Z" fill="#CE687A"/>
<path d="M34.9869 24.2335C29.1618 23.7186 24.5337 27.0655 24.3858 27.0978C24.2379 27.13 21.8886 27.2265 20.5369 26.969C19.1852 26.7116 16.675 25.8427 16.3532 25.7139C16.0313 25.5852 18.2841 26.9369 19.8933 27.3874C21.5024 27.838 24.2057 27.6771 24.3858 27.6771C24.5659 27.6771 24.077 30.7666 25.2033 33.5665C26.3297 36.3663 28.8722 41.8052 27.1987 41.9339C26.2217 42.0091 19.2014 38.0041 13.3283 34.5996C9.14105 32.1724 5.53695 30.0504 5.12168 29.9298C4.12394 29.6402 6.00961 28.5138 7.11687 24.5232C8.22413 20.5326 9.64616 17.5395 9.9358 17.0568C9.83926 16.5097 8.08224 11.1996 10.3028 10.0732C12.5234 8.9468 15.7417 11.972 15.7417 11.972C18.1876 11.6501 26.8638 11.3752 29.7924 12.1329C31.839 12.6623 37.6259 14.1282 37.6259 16.1557C37.6259 18.1832 37.0466 24.2335 34.9869 24.2335Z" fill="url(#paint0_linear_97_69)"/>
<path d="M33.9661 16.6063C33.6589 16.6063 33.2903 16.8316 33.1615 17.1534C33.0328 17.4752 34.3318 18.5075 34.5132 18.5695C34.6946 18.6314 35.0603 18.4615 35.0925 18.2798C35.1247 18.0982 34.2734 16.6063 33.9661 16.6063Z" fill="black"/>
<path d="M37.013 17.1675C36.8843 16.9422 36.4659 16.7491 36.2407 16.8135C36.0155 16.8779 35.7579 18.0685 35.7579 18.2617C35.7579 18.4548 36.1441 18.5835 36.305 18.5513C36.4659 18.5191 37.1417 17.3928 37.013 17.1675Z" fill="black"/>
<path d="M23.9951 16.3072C24.1613 15.9708 23.1505 14.3006 21.6211 14.2891C20.4693 14.2804 19.7512 14.836 19.2964 15.4301C19.1404 15.6339 19.341 15.8896 19.5877 15.8188C19.7307 15.7778 19.8834 15.8535 19.9868 15.9604C20.3144 16.2992 21.0523 16.6061 21.7675 16.6061C22.2317 16.6061 22.7054 16.4553 23.0446 16.3156C23.3385 16.1946 23.7022 16.4307 23.9951 16.3072Z" fill="black"/>
<g filter="url(#filter0_d_97_69)">
<path d="M7.77686 10.4283L2.89015 7.41256L6.79342 8.24818L7.3809 2.87258L12.1743 5.37564L13.6519 1.66748L13.4385 7.40585L11.7812 7.56747L10.8413 9.35476L8.83336 9.14112L7.77686 10.4283Z" fill="url(#paint1_linear_97_69)"/>
<path d="M7.77686 10.4283L2.89015 7.41256L6.79342 8.24818L7.3809 2.87258L12.1743 5.37564L13.6519 1.66748L13.4385 7.40585L11.7812 7.56747L10.8413 9.35476L8.83336 9.14112L7.77686 10.4283Z" fill="url(#paint2_linear_97_69)"/>
</g>
<path d="M7.76051 10.3306L2.89 7.41245L6.85939 8.49616L7.76051 10.3306Z" fill="url(#paint3_linear_97_69)"/>
<path d="M8.75817 9.04327L10.7857 9.26854L9.99613 7.78815L7.43868 2.99294L8.75817 9.04327Z" fill="url(#paint4_linear_97_69)"/>
<path d="M13.3925 7.33758L13.6499 1.73783L11.6868 7.49851L13.3925 7.33758Z" fill="url(#paint5_linear_97_69)"/>
<g filter="url(#filter1_i_97_69)">
<path d="M4.1886 29.5758L5.44372 28.4494C5.44372 28.4494 10.5608 32.4078 15.2594 35.4652C19.2636 38.0707 27.0704 41.773 27.2313 41.8052C27.3922 41.8373 27.5853 41.7086 27.6497 41.5155C27.7141 41.3224 26.5502 36.6001 25.7509 35.079C24.7532 33.1802 24.4958 30.5734 24.4958 30.5734L26.0968 31.9165L27.2812 33.4632L26.6646 34.5252L27.6646 35.9091C27.6646 35.9091 27.7784 41.6442 27.7784 41.7408C27.7784 41.8373 27.4566 41.9983 27.3279 41.9983C27.1992 41.9983 11.7837 38.1042 11.7837 38.1042L10.7538 35.4652L6.37701 35.1434L4.1886 29.5758Z" fill="#39586E"/>
</g>
<g filter="url(#filter2_i_97_69)">
<path d="M4.1886 29.5758L5.44372 28.4494C5.44372 28.4494 10.5608 32.4078 15.2594 35.4652C19.2636 38.0707 27.0382 41.7665 27.2313 41.8052C27.4244 41.8438 27.6819 41.9017 27.3279 41.9983C26.9739 42.0948 11.7837 38.1042 11.7837 38.1042L10.7538 35.4652L6.37701 35.1434L4.1886 29.5758Z" fill="#39586E"/>
</g>
<path d="M101.092 34.5011H96.9406C96.6402 34.5011 96.3506 34.426 96.0717 34.2759C95.8142 34.1257 95.6211 33.9111 95.4924 33.6322L91.9523 26.7451C91.8236 26.4662 91.6198 26.2517 91.3408 26.1015C91.0834 25.9513 90.8045 25.8762 90.5041 25.8762H86.3847V34.5011H81.7182V22.0465H92.3385C92.8105 22.0465 93.2503 21.9821 93.658 21.8534C94.0871 21.7246 94.4626 21.5315 94.7844 21.2741C95.1062 21.0166 95.3637 20.7055 95.5568 20.3408C95.7499 19.9546 95.8464 19.5148 95.8464 19.0213C95.8464 18.5278 95.7499 18.0987 95.5568 17.734C95.3637 17.3478 95.1062 17.026 94.7844 16.7685C94.4626 16.5111 94.0871 16.318 93.658 16.1892C93.2503 16.0605 92.8105 15.9961 92.3385 15.9961H83.3274C82.8983 15.9961 82.5228 15.8352 82.201 15.5134C81.8792 15.1916 81.7182 14.8161 81.7182 14.387V11.9733H92.7569C93.8082 11.9733 94.8058 12.1342 95.7499 12.4561C96.6939 12.7564 97.5199 13.207 98.2279 13.8077C98.9359 14.387 99.4938 15.1165 99.9014 15.9961C100.309 16.8543 100.513 17.8413 100.513 18.9569C100.513 20.3944 100.105 21.6603 99.2899 22.7545C98.4961 23.8487 97.4555 24.6747 96.1682 25.2325L101.092 34.5011Z" fill="white"/>
<path d="M151.216 34.8551C149.672 34.8551 148.288 34.6191 147.065 34.1471C145.842 33.6751 144.791 33.01 143.911 32.1518C143.053 31.2721 142.388 30.2101 141.916 28.9657C141.465 27.7213 141.24 26.3375 141.24 24.8142V12.0377H145.906V24.8142C145.906 25.6295 146.024 26.3911 146.26 27.0991C146.496 27.8072 146.839 28.4186 147.29 28.9335C147.741 29.4485 148.298 29.8561 148.964 30.1565C149.629 30.4354 150.39 30.5749 151.248 30.5749C152.107 30.5749 152.858 30.4354 153.501 30.1565C154.166 29.8561 154.724 29.4485 155.175 28.9335C155.625 28.4186 155.958 27.8072 156.172 27.0991C156.408 26.3911 156.526 25.6295 156.526 24.8142V12.0377H159.584C160.013 12.0377 160.388 12.1986 160.71 12.5204C161.032 12.8423 161.193 13.2177 161.193 13.6468V24.8142C161.193 26.3375 160.957 27.7213 160.485 28.9657C160.034 30.2101 159.369 31.2721 158.49 32.1518C157.631 33.01 156.591 33.6751 155.368 34.1471C154.145 34.6191 152.761 34.8551 151.216 34.8551Z" fill="white"/>
<path d="M234.439 15.9961H218.187V11.9733H237.11L235.951 14.9663C235.844 15.2667 235.64 15.5134 235.34 15.7065C235.061 15.8996 234.761 15.9961 234.439 15.9961ZM222.853 34.5011H218.187V21.2741H232.701L231.703 24.1062C231.596 24.428 231.403 24.6962 231.124 24.9107C230.845 25.1038 230.534 25.2004 230.191 25.2004H223.658C223.121 25.2004 222.853 25.4686 222.853 26.0049V34.5011Z" fill="white"/>
<path fill-rule="evenodd" clip-rule="evenodd" d="M195.112 25.49L199.778 31.83V11.9733H195.112V25.49ZM196.109 34.5011H199.778C198.813 33.1709 197.847 31.8514 196.882 30.5427C195.916 29.2339 194.951 27.9037 193.985 26.552C192.376 24.3422 190.81 22.1001 189.287 19.8259C187.785 17.5302 186.262 15.2452 184.717 12.971C184.502 12.6492 184.202 12.4024 183.816 12.2308C183.43 12.0591 183.054 11.9733 182.689 11.9733H179.503V13.2606L184.17 19.4397L194.05 33.5035C194.286 33.8253 194.597 34.072 194.983 34.2437C195.369 34.4153 195.745 34.5011 196.109 34.5011ZM179.503 15.6421V34.5011H184.17V21.5637L179.503 15.6421Z" fill="white"/>
<path fill-rule="evenodd" clip-rule="evenodd" d="M51.5951 32.1679C51.5951 33.4565 52.6397 34.5011 53.9283 34.5011V34.5011C55.2169 34.5011 56.2616 33.4565 56.2616 32.1679V20.0927C56.2616 17.8836 58.0524 16.0927 60.2616 16.0927H62.8268C63.9643 16.0927 64.8865 15.1705 64.8865 14.033V14.033C64.8865 12.8955 63.9643 11.9733 62.8268 11.9733H46.0597C44.9222 11.9733 44 12.8955 44 14.033V14.033C44 15.1705 44.9222 16.0927 46.0597 16.0927H47.7975C49.8949 16.0927 51.5951 17.7929 51.5951 19.8902V32.1679Z" fill="white"/>
<path fill-rule="evenodd" clip-rule="evenodd" d="M118.261 34.5011H122.927V29.899L118.261 21.8534V34.5011ZM122.927 27.0991V13.5825C122.927 13.1533 122.766 12.7779 122.445 12.4561C122.123 12.1342 121.747 11.9733 121.318 11.9733H118.261V18.9569L122.927 27.0991Z" fill="white"/>
<path fill-rule="evenodd" clip-rule="evenodd" d="M254.077 31.5403C255.15 32.5702 256.405 33.3855 257.842 33.9862C258.149 34.108 258.46 34.2169 258.774 34.3131C259.671 34.5876 260.612 34.1798 261.154 33.4135V33.4135C261.799 32.5004 263.154 32.4992 263.799 33.4124V33.4124C264.34 34.179 265.282 34.5863 266.179 34.3072C266.483 34.2125 266.783 34.1055 267.079 33.9862C268.538 33.3855 269.804 32.5702 270.876 31.5403C271.971 30.489 272.829 29.2554 273.451 27.8393C274.095 26.4233 274.417 24.8893 274.417 23.2372C274.417 21.5852 274.095 20.0511 273.451 18.6351C272.829 17.2191 271.971 15.9961 270.876 14.9663C269.804 13.915 268.538 13.0997 267.079 12.5204C266.785 12.3977 266.488 12.2876 266.186 12.1899C265.288 11.8993 264.339 12.3086 263.797 13.0815V13.0815C263.155 13.9977 261.797 13.9965 261.155 13.0803V13.0803C260.614 12.3078 259.665 11.8979 258.766 12.1838C258.455 12.2829 258.147 12.3952 257.842 12.5204C256.405 13.0997 255.15 13.915 254.077 14.9663C253.004 15.9961 252.146 17.2191 251.503 18.6351C250.882 20.0463 250.569 21.6918 250.569 23.2372C250.569 24.7826 250.882 26.4282 251.503 27.8393C252.146 29.2554 253.004 30.489 254.077 31.5403ZM265.341 30.0278C264.483 30.3925 263.528 30.5749 262.477 30.5749C261.447 30.5749 260.492 30.3818 259.613 29.9956C258.733 29.6094 257.982 29.0945 257.36 28.4508C256.738 27.7857 256.244 27.0133 255.879 26.1337C255.536 25.2325 255.364 24.2671 255.364 23.2372C255.364 22.2074 255.536 21.2526 255.879 20.373C256.244 19.4719 256.738 18.6995 257.36 18.0558C257.982 17.3907 258.733 16.8651 259.613 16.4789C260.492 16.0927 261.447 15.8996 262.477 15.8996C263.528 15.8996 264.483 16.0927 265.341 16.4789C266.221 16.8436 266.972 17.3585 267.594 18.0236C268.237 18.6888 268.731 19.4719 269.074 20.373C269.439 21.2526 269.621 22.2074 269.621 23.2372C269.621 24.2671 269.439 25.2325 269.074 26.1337C268.731 27.0133 268.237 27.7857 267.594 28.4508C266.972 29.1159 266.221 29.6416 265.341 30.0278Z" fill="white"/>
<defs>
<filter id="filter0_d_97_69" x="0.390137" y="1.66748" width="13.2618" height="11.7608" filterUnits="userSpaceOnUse" color-interpolation-filters="sRGB">
<feFlood flood-opacity="0" result="BackgroundImageFix"/>
<feColorMatrix in="SourceAlpha" type="matrix" values="0 0 0 0 0 0 0 0 0 0 0 0 0 0 0 0 0 0 127 0" result="hardAlpha"/>
<feOffset dx="-2.5" dy="3"/>
<feComposite in2="hardAlpha" operator="out"/>
<feColorMatrix type="matrix" values="0 0 0 0 1 0 0 0 0 0.728572 0 0 0 0 0.776697 0 0 0 0.29 0"/>
<feBlend mode="normal" in2="BackgroundImageFix" result="effect1_dropShadow_97_69"/>
<feBlend mode="normal" in="SourceGraphic" in2="effect1_dropShadow_97_69" result="shape"/>
</filter>
<filter id="filter1_i_97_69" x="4.1886" y="28.4494" width="23.5898" height="13.5489" filterUnits="userSpaceOnUse" color-interpolation-filters="sRGB">
<feFlood flood-opacity="0" result="BackgroundImageFix"/>
<feBlend mode="normal" in="SourceGraphic" in2="BackgroundImageFix" result="shape"/>
<feColorMatrix in="SourceAlpha" type="matrix" values="0 0 0 0 0 0 0 0 0 0 0 0 0 0 0 0 0 0 127 0" result="hardAlpha"/>
<feOffset dx="-4.5" dy="1"/>
<feComposite in2="hardAlpha" operator="arithmetic" k2="-1" k3="1"/>
<feColorMatrix type="matrix" values="0 0 0 0 0 0 0 0 0 0 0 0 0 0 0 0 0 0 0.25 0"/>
<feBlend mode="normal" in2="shape" result="effect1_innerShadow_97_69"/>
</filter>
<filter id="filter2_i_97_69" x="4.1886" y="28.4494" width="23.3154" height="13.5506" filterUnits="userSpaceOnUse" color-interpolation-filters="sRGB">
<feFlood flood-opacity="0" result="BackgroundImageFix"/>
<feBlend mode="normal" in="SourceGraphic" in2="BackgroundImageFix" result="shape"/>
<feColorMatrix in="SourceAlpha" type="matrix" values="0 0 0 0 0 0 0 0 0 0 0 0 0 0 0 0 0 0 127 0" result="hardAlpha"/>
<feOffset dx="3.5" dy="-4"/>
<feComposite in2="hardAlpha" operator="arithmetic" k2="-1" k3="1"/>
<feColorMatrix type="matrix" values="0 0 0 0 0 0 0 0 0 0 0 0 0 0 0 0 0 0 0.25 0"/>
<feBlend mode="normal" in2="shape" result="effect1_innerShadow_97_69"/>
</filter>
<linearGradient id="paint0_linear_97_69" x1="17.9304" y1="5.4067" x2="42.4299" y2="20.9071" gradientUnits="userSpaceOnUse">
<stop stop-color="#FF728B"/>
<stop offset="1" stop-color="#83FFF8"/>
</linearGradient>
<linearGradient id="paint1_linear_97_69" x1="4.7677" y1="10.8778" x2="15.7741" y2="5.76072" gradientUnits="userSpaceOnUse">
<stop stop-color="#967B1E"/>
<stop offset="0.223739" stop-color="#FFFBA4"/>
<stop offset="0.471428" stop-color="#D8B94B"/>
<stop offset="0.636386" stop-color="#FFFBA4"/>
<stop offset="1" stop-color="#967B1E"/>
</linearGradient>
<linearGradient id="paint2_linear_97_69" x1="7.3809" y1="2.87258" x2="10.9468" y2="10.5559" gradientUnits="userSpaceOnUse">
<stop stop-color="#FFF1A7"/>
<stop offset="1" stop-color="#FFF1A7" stop-opacity="0"/>
</linearGradient>
<linearGradient id="paint3_linear_97_69" x1="9.07999" y1="5.6319" x2="11.2362" y2="10.1375" gradientUnits="userSpaceOnUse">
<stop stop-color="#FEFFE1"/>
<stop offset="1" stop-color="#C59E13"/>
</linearGradient>
<linearGradient id="paint4_linear_97_69" x1="9.07999" y1="5.6319" x2="11.2362" y2="10.1375" gradientUnits="userSpaceOnUse">
<stop stop-color="#FEFFE1"/>
<stop offset="1" stop-color="#C59E13"/>
</linearGradient>
<linearGradient id="paint5_linear_97_69" x1="9.07999" y1="5.6319" x2="11.2362" y2="10.1375" gradientUnits="userSpaceOnUse">
<stop stop-color="#FEFFE1"/>
<stop offset="1" stop-color="#C59E13"/>
</linearGradient>
</defs>
</svg>
